<svg xmlns="http://www.w3.org/2000/svg" viewBox="0 0 640 512">
    <!-- Font Awesome Free 6.5.1 by @fontawesome - https://fontawesome.com License - https://fontawesome.com/license/free Copyright 2024 Fonticons, Inc. -->
    <path fill="#6366f1" d="M374.6 62.4l12.4-16.5C398.8 30.2 419.5 32 432 32h16c17.7 0 32 14.3 32 32s-14.3 32-32 32h-16c-3.1 0-6 1.4-7.5 3.9L391 144H512c12.3 0 24.1 4.9 32.8 13.6L600 212.8V512H448v-96c0-17.7-14.3-32-32-32H224c-17.7 0-32 14.3-32 32v96H40V212.8l55.2-55.2C103.9 148.9 115.7 144 128 144H249l-33.5-44.1A16 16 0 0 1 208 96h-16c-17.7 0-32-14.3-32-32s14.3-32 32-32h16c12.5 0 33.2-1.8 45 13.9l12.4 16.5C282.7 82 301.9 96 320 96s37.3-14 54.6-33.6z"/>
</svg>
